<mxfile host="65bd71144e">
    <diagram id="KUzoZ_WBEfeIF54OlFjl" name="Page-1">
        <mxGraphModel dx="1056" dy="856" grid="1" gridSize="10" guides="1" tooltips="1" connect="1" arrows="1" fold="1" page="1" pageScale="1" pageWidth="827" pageHeight="1169" math="0" shadow="0">
            <root>
                <mxCell id="0"/>
                <mxCell id="1" parent="0"/>
                <mxCell id="2" value="&lt;b&gt;Procedural&lt;/b&gt;&lt;div&gt;&lt;b&gt;Request&lt;/b&gt;&lt;/div&gt;&lt;div&gt;&lt;b&gt;Report&lt;/b&gt;&lt;/div&gt;&lt;div&gt;&lt;b&gt;Activity&lt;/b&gt;&lt;/div&gt;" style="ellipse;whiteSpace=wrap;html=1;rounded=0;shadow=0;glass=0;comic=0;strokeColor=#000000;strokeWidth=2;fillColor=#67A9CF;gradientColor=none;fontSize=14;fontColor=#000000;align=center;" parent="1" vertex="1">
                    <mxGeometry x="160" y="80" width="120" height="120" as="geometry"/>
                </mxCell>
                <mxCell id="3" value="proceduralRequestReportYear 1...1" style="endArrow=block;html=1;strokeColor=#000000;fontSize=14;fontColor=#000000;endFill=1;exitX=1;exitY=0.5;exitDx=0;exitDy=0;entryX=0;entryY=0.5;entryDx=0;entryDy=0;" parent="1" source="2" target="4" edge="1">
                    <mxGeometry width="50" height="50" relative="1" as="geometry">
                        <mxPoint x="310" y="130" as="sourcePoint"/>
                        <mxPoint x="480" y="140" as="targetPoint"/>
                    </mxGeometry>
                </mxCell>
                <mxCell id="4" value="xsd:gYear" style="whiteSpace=wrap;html=1;rounded=0;shadow=0;glass=0;comic=0;strokeColor=#000000;strokeWidth=2;fillColor=#FFFFFF;gradientColor=none;fontSize=14;fontColor=#000000;align=center;" parent="1" vertex="1">
                    <mxGeometry x="560" y="130" width="140" height="20" as="geometry"/>
                </mxCell>
                <mxCell id="5" value="&lt;b&gt;Procedural&lt;/b&gt;&lt;div&gt;&lt;b&gt;Request&lt;/b&gt;&lt;/div&gt;&lt;div&gt;&lt;b&gt;Report&lt;/b&gt;&lt;/div&gt;&lt;div&gt;&lt;b&gt;Entity&lt;/b&gt;&lt;/div&gt;" style="ellipse;whiteSpace=wrap;html=1;rounded=0;shadow=0;glass=0;comic=0;strokeColor=#000000;strokeWidth=2;fillColor=#fddbc7;gradientColor=none;fontSize=14;fontColor=#000000;align=center;" vertex="1" parent="1">
                    <mxGeometry x="560" y="200" width="120" height="120" as="geometry"/>
                </mxCell>
                <mxCell id="6" value="&lt;span style=&quot;background-color: rgb(209, 229, 240);&quot;&gt;&lt;font&gt;prov:used 1...1&lt;/font&gt;&lt;/span&gt;" style="endArrow=block;html=1;strokeColor=#000000;fontSize=14;fontColor=#000000;endFill=1;exitX=0.5;exitY=1;exitDx=0;exitDy=0;entryX=0;entryY=0.5;entryDx=0;entryDy=0;edgeStyle=orthogonalEdgeStyle;rounded=0;curved=0;" edge="1" parent="1" source="2" target="5">
                    <mxGeometry x="0.1707" width="50" height="50" relative="1" as="geometry">
                        <mxPoint x="390" y="510" as="sourcePoint"/>
                        <mxPoint x="530" y="510" as="targetPoint"/>
                        <mxPoint as="offset"/>
                    </mxGeometry>
                </mxCell>
                <mxCell id="7" value="&lt;b&gt;Procedural&lt;/b&gt;&lt;div&gt;&lt;b&gt;Request&lt;/b&gt;&lt;/div&gt;&lt;div&gt;&lt;b&gt;Proposal&lt;/b&gt;&lt;/div&gt;&lt;div&gt;&lt;b&gt;Activity&lt;/b&gt;&lt;/div&gt;" style="ellipse;whiteSpace=wrap;html=1;rounded=0;shadow=0;glass=0;comic=0;strokeColor=#000000;strokeWidth=2;fillColor=#67A9CF;gradientColor=none;fontSize=14;fontColor=#000000;align=center;" vertex="1" parent="1">
                    <mxGeometry x="480" y="360" width="120" height="120" as="geometry"/>
                </mxCell>
                <mxCell id="8" value="&lt;b&gt;Procedural&lt;/b&gt;&lt;div&gt;&lt;b&gt;Request&lt;/b&gt;&lt;/div&gt;&lt;div&gt;&lt;b&gt;Information&lt;/b&gt;&lt;/div&gt;&lt;div&gt;&lt;b&gt;Activity&lt;/b&gt;&lt;/div&gt;" style="ellipse;whiteSpace=wrap;html=1;rounded=0;shadow=0;glass=0;comic=0;strokeColor=#000000;strokeWidth=2;fillColor=#67A9CF;gradientColor=none;fontSize=14;fontColor=#000000;align=center;" vertex="1" parent="1">
                    <mxGeometry x="480" y="524.5" width="120" height="120" as="geometry"/>
                </mxCell>
                <mxCell id="9" value="&lt;span style=&quot;background-color: rgb(209, 229, 240);&quot;&gt;prov:wasInformedBy 0...*&lt;/span&gt;" style="endArrow=block;html=1;strokeColor=#000000;fontSize=14;fontColor=#000000;endFill=1;exitX=0.5;exitY=1;exitDx=0;exitDy=0;entryX=0;entryY=0.5;entryDx=0;entryDy=0;edgeStyle=orthogonalEdgeStyle;rounded=0;curved=0;" edge="1" parent="1" source="2" target="7">
                    <mxGeometry x="0.4583" width="50" height="50" relative="1" as="geometry">
                        <mxPoint x="230" y="210" as="sourcePoint"/>
                        <mxPoint x="450" y="320" as="targetPoint"/>
                        <mxPoint as="offset"/>
                    </mxGeometry>
                </mxCell>
                <mxCell id="10" value="&lt;span style=&quot;background-color: rgb(209, 229, 240);&quot;&gt;prov:wasInformedBy 0...*&lt;/span&gt;" style="endArrow=block;html=1;strokeColor=#000000;fontSize=14;fontColor=#000000;endFill=1;exitX=0.5;exitY=1;exitDx=0;exitDy=0;entryX=0;entryY=0.5;entryDx=0;entryDy=0;edgeStyle=orthogonalEdgeStyle;rounded=0;curved=0;" edge="1" parent="1" source="2" target="8">
                    <mxGeometry x="0.5966" width="50" height="50" relative="1" as="geometry">
                        <mxPoint x="230" y="210" as="sourcePoint"/>
                        <mxPoint x="450" y="510" as="targetPoint"/>
                        <mxPoint as="offset"/>
                    </mxGeometry>
                </mxCell>
            </root>
        </mxGraphModel>
    </diagram>
</mxfile>